<svg width="32" height="32" viewBox="0 0 32 32" xmlns="http://www.w3.org/2000/svg">
    <defs>
        <style/>
    </defs>
    <path d="M15.997 10.545c-2.986 0-5.401 2.438-5.401 5.446 0 3.015 2.422 5.454 5.401 5.454 2.98 0 5.395-2.439 5.401-5.447 0-3.015-2.421-5.453-5.4-5.453m0 9.344c-2.128 0-3.858-1.742-3.858-3.895 0-2.149 1.725-3.891 3.858-3.891 2.128 0 3.858 1.742 3.858 3.896-.005 2.148-1.73 3.89-3.858 3.89m14.366-6.755c-.265-1.407-1.255-2.353-2.483-2.353h-.115a2.115 2.115 0 0 1-2.11-2.116c0-.228.11-.597.185-.779.552-1.252.127-2.788-1.03-3.601l-3.45-1.933-.145-.069c-1.108-.485-2.553-.197-3.396.68-.467.486-1.384 1.102-1.75 1.102-.368 0-1.294-.63-1.762-1.123a3.07 3.07 0 0 0-3.466-.676l-3.538 1.95-.147.095c-1.123.783-1.553 2.321-.998 3.577.062.149.186.523.186.777a2.115 2.115 0 0 1-2.11 2.116h-.137c-1.208 0-2.198.947-2.463 2.352-.012.066-.302 1.609-.302 2.879 0 1.269.292 2.814.304 2.876.265 1.408 1.256 2.353 2.484 2.353h.116c1.164 0 2.11.949 2.11 2.116 0 .253-.123.631-.185.78-.551 1.253-.127 2.788 1.036 3.605l3.374 1.902.142.07c1.123.499 2.59.191 3.428-.722.515-.56 1.452-1.174 1.792-1.174.377 0 1.324.67 1.802 1.198.556.617 1.4.984 2.258.984.406 0 .796-.079 1.21-.258l3.5-1.937.145-.095c1.119-.784 1.546-2.32.994-3.57-.076-.184-.188-.556-.188-.783 0-1.167.947-2.116 2.11-2.116h.134c1.21 0 2.2-.945 2.46-2.33.004-.014.308-1.599.308-2.903-.002-1.271-.29-2.81-.303-2.874m-2.274 5.324c-.053.28-.157.401-.153.404h-.112c-2.487 0-4.51 2.04-4.51 4.549 0 .743.276 1.493.397 1.769h-.002c.088.2.022.464-.184.633l-3.282 1.83c-.224.09-.575.015-.736-.164-.073-.08-1.826-1.993-3.575-1.993-1.738 0-3.534 1.937-3.553 1.958a.658.658 0 0 1-.73.156l-3.178-1.788a.541.541 0 0 1-.177-.635h-.001c.134-.303.394-1.054.394-1.766 0-2.509-2.023-4.549-4.51-4.549l-.084.014c-.025-.016-.13-.137-.183-.42-.073-.385-.263-1.576-.263-2.444 0-.87.189-2.061.262-2.448.052-.28.157-.4.15-.404h.114c2.488 0 4.511-2.04 4.511-4.548 0-.716-.256-1.455-.395-1.766l.002-.002c-.088-.198-.018-.468.182-.63l3.353-1.858c.201-.088.578-.017.745.16.072.078 1.801 1.88 3.498 1.88 1.688 0 3.403-1.77 3.474-1.845a.689.689 0 0 1 .746-.15l3.24 1.81a.55.55 0 0 1 .178.634l.003.002c-.143.321-.396 1.054-.396 1.765 0 2.508 2.023 4.548 4.51 4.548l.082-.014c.025.017.13.138.183.42.073.383.26 1.572.262 2.443 0 1.046-.258 2.43-.262 2.449"
          fill="#34475e" class="transform-group"/>
</svg>